{"title":"Wanderlust.2012.720p.BRRIP.XVID.AC3-26k","uid":7336842,"size":2743542321,"categoryP":"video","categoryS":"hd___movies","magnet":"?xt=urn:btih:261367aee4ae391fd8ce366368c1fd19ee0de122&amp;dn=Wanderlust.2012.720p.BRRIP.XVID.AC3-26k&amp;tr=udp%3A%2F%2Ftracker.openbittorrent.com%3A80&amp;tr=udp%3A%2F%2Fopen.demonii.com%3A1337&amp;tr=udp%3A%2F%2Ftracker.coppersurfer.tk%3A6969&amp;tr=udp%3A%2F%2Fexodus.desync.com%3A6969","seeders":0,"leechers":1,"uploader":"ontotita","files":3,"time":1339092139,"description":"Wanderlust.2012.720p.BRRIP.XVID.AC3-26k\n &lt;a href=&quot;\nhttp://www.imdb.com/title/tt1655460/&quot; rel=&quot;nofollow&quot; target=&quot;_NEW&quot;&gt;\nhttp://www.imdb.com/title/tt1655460/&lt;/a&gt;\n\nPlot:\n\nRattled by sudden unemployment, a Manhattan couple surveys alternative living options, ultimately deciding to experiment with living on a rural commune where free love rules\n\nSources - BLURAY THNXS\n\nGeneral\nComplete name: Wanderlust 720p BRRIP XVID AC3 - 26k.avi\nFormat: AVI\nFormat/Info: Audio Video Interleave\nFormat profile: OpenDML\nFormat settings: rec\nFile size: 2.50 GiB\nDuration: 1h 38mn\nOverall bit rate: 3 643 Kbps\n\nVideo\nID: 0\nFormat: MPEG-4 Visual\nFormat profile: Advanced Simple@L5\nFormat settings, BVOP: 2\nFormat settings, QPel: No\nFormat settings, GMC: No warppoints\nFormat settings, Matrix: Default (H.263)\nCodec ID: XVID\nCodec ID/Hint: XviD\nDuration: 1h 38mn\nBit rate: 2 997 Kbps\nWidth: 1 280 pixels\nHeight: 688 pixels\nDisplay aspect ratio: 1.85:1\nFrame rate: 23.976 fps\nColor space: YUV\nChroma subsampling: 4:2:0\nBit depth: 8 bits\nScan type: Progressive\nCompression mode: Lossy\nBits/(Pixel*Frame): 0.142\nStream size: 2.05 GiB (82%)\n\nAudio\nID: 1\nFormat: AC-3\nFormat/Info: Audio Coding 3\nMode extension: CM (complete main)\nFormat settings, Endianness: Big\nCodec ID: 2000\nDuration: 1h 38mn\nBit rate mode: Constant\nBit rate: 640 Kbps\nChannel(s): 6 channels\nChannel positions: Front: L C R, Side: L R, LFE\nSampling rate: 48.0 KHz\nBit depth: 16 bits\nCompression mode: Lossy\nStream size: 449 MiB (18%)\nAlignment: Aligned on interleaves\nInterleave, duration: 64 ms (1.53 video frames)\nInterleave, preload duration: 192 ms\n\nNotes\n\nENJOY \n\nGreetz:\nXtreme Encode|FYA|ILLUMANTI|CM8|RX|VISION|HDSCENE|xTriLL|DTRG|CRYS|REMIXHD|BIDA|RX|REFILL|INSPiRAL|SIC|HOPE|Anonymous|GooN|NOIR|Blackjesus|Gabroo Punjab Deh|\n\nTo all the people who have helped me you know who you are\n\nAnything to offer email us @: &lt;a class=&quot;__cf_email__&quot; href=&quot;/cdn-cgi/l/email-protection&quot; data-cfemail=&quot;3103075a71594442595c50585d1f5c541f&quot;&gt;[email&amp;#160;protected]&lt;/a&gt;&lt;script cf-hash='f9e31' type=&quot;text/javascript&quot;&gt;\n/* &lt;![CDATA[ */!function(){try{var t=&quot;currentScript&quot;in document?document.currentScript:function(){for(var t=document.getElementsByTagName(&quot;script&quot;),e=t.length;e--;)if(t[e].getAttribute(&quot;cf-hash&quot;))return t[e]}();if(t&amp;&amp;t.previousSibling){var e,r,n,i,c=t.previousSibling,a=c.getAttribute(&quot;data-cfemail&quot;);if(a){for(e=&quot;&quot;,r=parseInt(a.substr(0,2),16),n=2;a.length-n;n+=2)i=parseInt(a.substr(n,2),16)^r,e+=String.fromCharCode(i);e=document.createTextNode(e),c.parentNode.replaceChild(e,c)}}}catch(u){}}();/* ]]&gt; */&lt;/script&gt;","torrent":{"xt":"urn:btih:261367aee4ae391fd8ce366368c1fd19ee0de122","amp;dn":"Wanderlust.2012.720p.BRRIP.XVID.AC3-26k","amp;tr":["udp%3A%2F%2Ftracker.openbittorrent.com%3A80","udp%3A%2F%2Fopen.demonii.com%3A1337","udp%3A%2F%2Ftracker.coppersurfer.tk%3A6969","udp%3A%2F%2Fexodus.desync.com%3A6969"],"infoHash":"261367aee4ae391fd8ce366368c1fd19ee0de122","infoHashBuffer":{"type":"Buffer","data":[38,19,103,174,228,174,57,31,216,206,54,99,104,193,253,25,238,13,225,34]},"announce":[],"urlList":[]}}